<svg width="423.50000000000006" height="442.20000000000005" xmlns="http://www.w3.org/2000/svg" xmlns:xlink="http://www.w3.org/1999/xlink"><line x1="34.0" y1="6.0" x2="34.0" y2="29.0" style="stroke:black; stroke-width:1px;" />
<line x1="34.0" y1="35.0" x2="13.0" y2="58.0" style="stroke:black; stroke-width:1px;" />
<line x1="13.0" y1="64.0" x2="13.0" y2="87.0" style="stroke:black; stroke-width:1px;" />
<line x1="34.0" y1="35.0" x2="38.0" y2="58.0" style="stroke:black; stroke-width:1px;" />
<line x1="34.0" y1="35.0" x2="55.0" y2="58.0" style="stroke:black; stroke-width:1px;" />
<rect x="21.0" y="29.0" width="26.0" height="12.0" style="fill:orange; stroke:rgb(0,0,0);" rx="1"/>
<text x="23" y="38" style="font-family:sans-serif;font-size:10px;">
expr
</text>
<rect x="21.0" y="0.0" width="26.0" height="12.0" style="fill:orange; stroke:rgb(0,0,0);" rx="1"/>
<text x="23" y="9" style="font-family:sans-serif;font-size:10px;">
prog
</text>
<rect x="8.0" y="87.0" width="10.0" height="12.0" style="fill:orange; stroke:rgb(0,0,0);" rx="1"/>
<text x="10" y="96" style="font-family:sans-serif;font-size:10px;">
5
</text>
<rect x="33.0" y="58.0" width="10.0" height="12.0" style="fill:orange; stroke:rgb(0,0,0);" rx="1"/>
<text x="35" y="67" style="font-family:sans-serif;font-size:10px;">
+
</text>
<rect x="50.0" y="58.0" width="10.0" height="12.0" style="fill:orange; stroke:rgb(0,0,0);" rx="1"/>
<text x="52" y="67" style="font-family:sans-serif;font-size:10px;">
1
</text>
<rect x="0.0" y="58.0" width="26.0" height="12.0" style="fill:orange; stroke:rgb(0,0,0);" rx="1"/>
<text x="2" y="67" style="font-family:sans-serif;font-size:10px;">
expr
</text>
</svg>