<svg width="800" height="300" version="1.1" xmlns="http://www.w3.org/2000/svg" id="fig3.1">
	<ellipse stroke="black" stroke-width="1" fill="none" cx="272.5" cy="107.5" rx="30" ry="30"/>
	<ellipse stroke="black" stroke-width="1" fill="none" cx="152.5" cy="175.5" rx="30" ry="30"/>
	<text x="149.5" y="181.5" font-family="Times New Roman" font-size="20">i</text>
	<ellipse stroke="black" stroke-width="1" fill="none" cx="272.5" cy="227.5" rx="30" ry="30"/>
	<ellipse stroke="black" stroke-width="1" fill="none" cx="399.5" cy="107.5" rx="30" ry="30"/>
	<ellipse stroke="black" stroke-width="1" fill="none" cx="399.5" cy="227.5" rx="30" ry="30"/>
	<ellipse stroke="black" stroke-width="1" fill="none" cx="512.5" cy="175.5" rx="30" ry="30"/>
	<text x="509.5" y="181.5" font-family="Times New Roman" font-size="20">f</text>
	<ellipse stroke="black" stroke-width="1" fill="none" cx="512.5" cy="175.5" rx="24" ry="24"/>
	<polygon stroke="black" stroke-width="1" points="178.601,160.71 246.399,122.29"/>
	<polygon fill="black" stroke-width="1" points="246.399,122.29 236.974,121.884 241.904,130.585"/>
	<text x="217.5" y="162.5" font-family="Times New Roman" font-size="20">&#949;</text>
	<polygon stroke="black" stroke-width="1" points="180.027,187.428 244.973,215.572"/>
	<polygon fill="black" stroke-width="1" points="244.973,215.572 239.621,207.803 235.645,216.979"/>
	<text x="199.5" y="222.5" font-family="Times New Roman" font-size="20">&#949;</text>
	<polygon stroke="black" stroke-width="1" points="425.205,122.968 486.795,160.032"/>
	<polygon fill="black" stroke-width="1" points="486.795,160.032 482.519,151.623 477.363,160.191"/>
	<text x="442.5" y="162.5" font-family="Times New Roman" font-size="20">&#949;</text>
	<polygon stroke="black" stroke-width="1" points="426.753,214.959 485.247,188.041"/>
	<polygon fill="black" stroke-width="1" points="485.247,188.041 475.889,186.843 480.07,195.928"/>
	<text x="460.5" y="222.5" font-family="Times New Roman" font-size="20">&#949;</text>
    <ellipse stroke="black" stroke-width="1" fill="none" cx="335.5" cy="107.5" rx="120" ry="50"/>
    <text x="320.5" y="112.5" font-family="Times New Roman" font-size="20">N(S)</text>
    <ellipse stroke="black" stroke-width="1" fill="none" cx="335.5" cy="227.5" rx="120" ry="50"/>
    <text x="320.5" y="232.5" font-family="Times New Roman" font-size="20">N(T)</text>
</svg>
