<?xml version="1.0" standalone="no"?>
<!DOCTYPE svg PUBLIC "-//W3C//DTD SVG 1.1//EN" "http://www.w3.org/Graphics/SVG/1.1/DTD/svg11.dtd">

<svg width="800" height="215" version="1.1" xmlns="http://www.w3.org/2000/svg">
	<ellipse stroke="black" stroke-width="1" fill="none" cx="74.5" cy="46.5" rx="30" ry="30"/>
	<text x="65.5" y="52.5" font-family="Times New Roman" font-size="20">q&#8320;</text>
	<ellipse stroke="black" stroke-width="1" fill="none" cx="74.5" cy="46.5" rx="24" ry="24"/>
	<ellipse stroke="black" stroke-width="1" fill="none" cx="244.5" cy="46.5" rx="30" ry="30"/>
	<text x="235.5" y="52.5" font-family="Times New Roman" font-size="20">q&#8321;</text>
	<ellipse stroke="black" stroke-width="1" fill="none" cx="136.5" cy="181.5" rx="30" ry="30"/>
	<text x="127.5" y="187.5" font-family="Times New Roman" font-size="20">q&#8322;</text>
	<path stroke="black" stroke-width="1" fill="none" d="M 102.642,36.181 A 206.583,206.583 0 0 1 216.358,36.181"/>
	<polygon fill="black" stroke-width="1" points="216.358,36.181 210.044,29.173 207.291,38.787"/>
	<text x="147.5" y="19.5" font-family="Times New Roman" font-size="20">a:d</text>
	<path stroke="black" stroke-width="1" fill="none" d="M 215.633,54.606 A 261.442,261.442 0 0 1 103.367,54.606"/>
	<polygon fill="black" stroke-width="1" points="103.367,54.606 110.107,61.207 112.254,51.441"/>
	<text x="147.5" y="81.5" font-family="Times New Roman" font-size="20">b:&#949;</text>
	<path stroke="black" stroke-width="1" fill="none" d="M 95.54,67.834 A 177.177,177.177 0 0 1 134.028,151.638"/>
	<polygon fill="black" stroke-width="1" points="134.028,151.638 137.627,142.917 127.766,144.582"/>
	<text x="127.5" y="102.5" font-family="Times New Roman" font-size="20">b:d</text>
	<path stroke="black" stroke-width="1" fill="none" d="M 111.938,164.407 A 121.875,121.875 0 0 1 71.46,76.269"/>
	<polygon fill="black" stroke-width="1" points="71.46,76.269 66.631,84.374 76.629,84.161"/>
	<text x="52.5" y="140.5" font-family="Times New Roman" font-size="20">c:&#949;</text>
</svg>
